<svg preserveAspectRatio="none" overflow="visible" style="display: block;" width="22" height="22" viewBox="0 0 22 22" fill="none" xmlns="http://www.w3.org/2000/svg">
<g id="Group 13">
<circle id="Ellipse 11" opacity="0.2" cx="11" cy="11" r="11" fill="#D9D9D9"/>
<g id="Vector">
<path d="M10.0059 16V6C10.0059 5.44772 10.4536 5 11.0059 5C11.5581 5 12.0059 5.44772 12.0059 6V16C12.0059 16.5523 11.5581 17 11.0059 17C10.4536 17 10.0059 16.5523 10.0059 16Z" fill="#3EC079"/>
<path d="M6.00586 10L16.0059 10C16.5581 10 17.0059 10.4477 17.0059 11C17.0059 11.5523 16.5581 12 16.0059 12L6.00586 12C5.45358 12 5.00586 11.5523 5.00586 11C5.00586 10.4477 5.45358 10 6.00586 10Z" fill="#3EC079"/>
</g>
</g>
</svg>
