<svg preserveAspectRatio="none" overflow="visible" style="display: block;" width="27" height="21" viewBox="0 0 27 21" fill="none" xmlns="http://www.w3.org/2000/svg">
<g id="Union">
<path d="M22.5275 18.9C22.5275 20.0597 21.6031 20.9998 20.4633 21H2.57323C1.43318 21 0.508995 20.0598 0.508995 18.9H22.5275Z" fill="#53D68E"/>
<path fill-rule="evenodd" clip-rule="evenodd" d="M21.1964 0.00273437C22.2872 0.0625041 23.1256 1.03275 23.0281 2.154L23.0026 2.45H23.2156C25.3055 2.45018 27 4.17382 27 6.3C27 8.42618 25.3055 10.1498 23.2156 10.15H21.7279C21.44 11.2562 21.1089 12.3514 20.7327 13.4319L20.6635 13.6192C19.9126 15.5336 18.0871 16.7999 16.0479 16.8H6.98862L6.79174 16.7959C4.76721 16.7148 2.98461 15.3875 2.30378 13.4319C1.14056 10.0906 0.395658 6.61319 0.0883538 3.08232L0.00771963 2.154C-0.0929648 0.996521 0.804111 0.000165866 1.9463 0H21.0902L21.1964 0.00273437ZM22.7922 4.55C22.6491 5.72491 22.4586 6.8927 22.2191 8.05H23.2156C24.1655 8.04982 24.9358 7.26638 24.9358 6.3C24.9358 5.33362 24.1655 4.55018 23.2156 4.55H22.7922ZM2.1452 2.89707C2.22398 3.80228 2.33352 4.7037 2.47244 5.6H20.5634C20.7023 4.70369 20.8125 3.80229 20.8913 2.89707L20.9605 2.1H2.07599L2.1452 2.89707Z" fill="#53D68E"/>
</g>
</svg>
