<svg preserveAspectRatio="none" overflow="visible" style="display: block;" width="66" height="56" viewBox="0 0 66 56" fill="none" xmlns="http://www.w3.org/2000/svg">
<g id="Frame 23">
<rect width="66" height="56" rx="28" fill="#595450" fill-opacity="0.8"/>
<path id="Union" d="M47.5 27C48.1066 27 48.6535 27.3654 48.8857 27.9258C49.1179 28.4863 48.9895 29.1315 48.5605 29.5605L42.1211 36H47.5C48.3284 36 49 36.6716 49 37.5C49 38.3284 48.3284 39 47.5 39H38.5C37.8934 39 37.3465 38.6346 37.1143 38.0742C36.8821 37.5137 37.0105 36.8684 37.4395 36.4395L43.8789 30H38.5C37.6716 30 37 29.3284 37 28.5C37 27.6716 37.6716 27 38.5 27H47.5ZM34.5 17C35.1066 17 35.6535 17.3654 35.8857 17.9258C36.1179 18.4863 35.9895 19.1315 35.5605 19.5605L25.1211 30H34.5C35.3284 30 36 30.6716 36 31.5C36 32.3284 35.3284 33 34.5 33H21.5C20.8934 33 20.3465 32.6346 20.1143 32.0742C19.8821 31.5137 20.0105 30.8685 20.4395 30.4395L30.8789 20H21.5C20.6716 20 20 19.3284 20 18.5C20 17.6716 20.6716 17 21.5 17H34.5Z" fill="#E3E3E3"/>
</g>
</svg>
